<?xml version="1.0" encoding="UTF-8"?>
<!DOCTYPE svg PUBLIC "-//W3C//DTD SVG 1.1//EN" "http://www.w3.org/Graphics/SVG/1.1/DTD/svg11.dtd">
<!-- Creator: CorelDRAW -->
<svg xmlns="http://www.w3.org/2000/svg" xml:space="preserve" width="111.367mm" height="67.2685mm" version="1.1" style="shape-rendering:geometricPrecision; text-rendering:geometricPrecision; image-rendering:optimizeQuality; fill-rule:evenodd; clip-rule:evenodd"
viewBox="0 0 11136.66 6726.86"
 xmlns:xlink="http://www.w3.org/1999/xlink"
 xmlns:xodm="http://www.corel.com/coreldraw/odm/2003">
 <defs>
  <style type="text/css">
   <![CDATA[
    .fil0 {fill:#060B4A}
    .fil1 {fill:#CA0E12}
   ]]>
  </style>
 </defs>
 <g id="Camada_x0020_1">
  <metadata id="CorelCorpID_0Corel-Layer"/>
  <path class="fil0" d="M2548.04 3549.79c1464.64,-0.02 1316.16,183.58 1673.92,-873.57 81.44,-240.65 248.26,-506.28 23.65,-626.93l63.43 -56.79c44.59,-40.02 21.31,-13.09 59.19,-53.09 45.4,-47.91 49.27,-51.8 82.38,-129.29 96.43,-225.74 328.19,-895.76 302.42,-1084.8 -224.19,-142.79 -880.17,-96.11 -1219.79,-78.29l-985.2 2902.76zm1052.06 -1687.19l355.51 1.99 276.5 -845.75 -353.32 3.06 -278.69 840.7zm-434.37 1313.58c474.89,2.99 374.2,82.71 550.43,-441.1 57.44,-170.71 120.98,-320.93 155.82,-495.42l-355.51 -0.2c-112.81,90.27 -308.32,762.6 -350.77,936.72l0.03 0z"/>
  <path class="fil0" d="M5916.29 3974.65l348.21 5.44 -702.41 2108.64c519.46,14.91 381.78,68.85 564.01,-485.49 60.61,-184.34 122.99,-363.31 187.21,-553.58 51.36,-152.21 304.93,-1043.36 413.5,-1071.4 211.62,0.15 242.66,43.67 357.61,-77.27 -45.11,269.74 -325.7,803.67 -269.41,1014.03 157.55,141.92 443.64,81.13 652.33,83.56l-253.92 777.42 -337.28 -1.9 132.17 -410.24 -401.41 -4.11c-61.18,178.9 -200.65,488.42 -160.5,669.64 174.88,92.7 466.26,63.1 703.72,63.08 430.2,-0.04 420.27,-174.18 535.68,-516.86 316.49,-939.93 409.8,-891.01 -437.91,-890.49l227.73 -701.51 337.32 0.33 -121.5 379.46 340.65 16.61c106.01,-56.87 26.6,45.29 99.65,-123.56 15.67,-36.26 44.81,-141.64 60.09,-186.42 50.58,-148.28 82.16,-201.94 60.13,-350.04 -161.02,-64.63 -896.74,-134.49 -1085.5,65.44l-35.93 -105.4 -1116.47 -15.67 -97.75 310.22 -0.02 0.07z"/>
  <path class="fil0" d="M1049.45 3458.69c161.42,128.17 901.68,150.16 1151.99,54.62 258.22,-98.53 312.06,-479.2 451.07,-889.51 115.8,-341.83 629.53,-1734.47 646.08,-1981.21l-450.17 0.17c-212.74,348.69 -755.78,2490.34 -919.39,2535.56l-350.2 -1.16 841.29 -2529.61 -474.26 -3.41c-138.49,316.14 -919.69,2612.89 -896.39,2814.52l-0.03 0.03 0.01 0z"/>
  <path class="fil0" d="M4895.24 3458.12c201.11,159.69 1176.43,161.42 1334.8,-79.17 74.07,-112.52 375.92,-1057.89 421.93,-1239.59l-646.93 -4.98c-15.32,68.68 -69.27,196.24 -77.24,245.06 -27.58,168.96 71.56,133.79 101.96,191.12 -216.41,692 -104.57,608.18 -605.34,606.45 88.22,-347.16 240.96,-744.81 358.39,-1091.93 65.55,-193.72 122.49,-362.26 187.25,-553.67 32.04,-94.66 59.15,-171.8 88.7,-264.08 97.33,-303.97 56,-249.96 488.51,-248.39l-160.43 495.51 490.61 1.55c51.36,-225.57 229.65,-541.86 194.18,-776.02 -163.14,-122.73 -851.85,-157 -1112.91,-67.32 -297.37,102.18 -340.1,463.79 -458.63,812.5 -111.71,328.67 -633.58,1722.9 -604.88,1972.93l0.03 0.03z"/>
  <path class="fil0" d="M3694.84 3688.1c-281.46,82.99 -297.35,368.38 -399.97,671.89 -91.95,271.93 -178.47,527.85 -267.56,790.78 -44.59,131.6 -262.38,709.03 -246.64,804.11 33.22,200.5 771.28,162.05 924.61,119.97 260.71,-71.54 296.32,-408.32 385.54,-672.37 68.76,-203.54 528.84,-1496.81 513.84,-1592.96 -34.58,-221.98 -713.07,-179.43 -909.83,-121.42l0.01 0zm-472.6 2090.8l343.46 0.97 598.84 -1800.08 -345.17 -1.51 -597.13 1800.62z"/>
  <path class="fil0" d="M4035.56 6089.38l399.29 3.17 347.99 -1026.42 332.54 -2.62 -334.94 1025.92 399.27 3.21c69.9,-179.75 139.6,-403.07 204.93,-595.7 77.48,-228.47 232.28,-479.35 47.19,-608.51 196.3,-115.1 194.46,-254.46 280.8,-509.71 62.38,-184.48 190.18,-430.13 157.53,-635.96 -218.68,-154.05 -716.83,-76.89 -1022.07,-77.2l-812.52 2423.82 -0.01 0zm864.33 -1339.38l278.05 1.64 263.62 -771.06c-373.83,-3.65 -276.15,-47.23 -410.24,351.62 -44.22,131.54 -106.05,281.52 -131.45,417.8l0.02 0z"/>
  <path class="fil0" d="M1258.77 4998.38l-253.83 777.79 -337.21 0.63 132.15 -412.97 -401.48 -4.11c-60.41,179.84 -201.11,486.85 -160.74,669.38 91.21,48.55 982.16,219.67 1142.24,-161.81 564.66,-1345.69 335.16,-1181.98 -340.67,-1182.24l227.84 -701.2 336.89 -2.99 -121.2 382.35c489.74,28.17 374.33,79.52 500.47,-292.82 50.25,-148.37 82.18,-202.68 60.11,-350.59 -195.1,-77.81 -559.5,-74.42 -819.37,-51.91 -308.32,26.71 -323.88,205.39 -411.94,467.05 -311.71,926.05 -388.73,855.23 446.76,863.45l-0.02 -0.01z"/>
  <path class="fil0" d="M1478.57 6088.61l402.28 1.09 369.48 -1094.96c548.09,-17.51 721.49,84.5 857.46,-328.28 72.46,-219.91 289.92,-715.24 254.44,-919.89 -184.85,-138.4 -787.06,-94.86 -1072.74,-74.53l-810.95 2416.57 0.03 0zm883.61 -1418.19l131.2 9.42 70.62 -1.18 131.01 -1.11 237.29 -697.32 -346.36 -1.94 -223.76 692.13z"/>
  <path class="fil1" d="M7341.31 3604.19c557.95,-17.31 999.75,-90.9 1496,102.82 -70.93,367.29 -952.83,1873.02 -1238.76,2311.28 -155.08,237.72 -355.92,477.54 -483.72,708.56 362.02,-227.75 1131.29,-1138.24 1455.19,-1571.89 199.4,-266.94 1066.96,-1565.46 1115.34,-1901.52 -627.61,-30.64 -1252.86,-40.02 -1853.89,138.77 -78.27,23.3 -162.05,50.08 -240.45,76.89l-249.7 135.12 -0.01 -0.02 0 -0.01z"/>
  <path class="fil0" d="M426.76 1003.69l417.96 16.35 -844.72 2529.79 480.62 3.41 852.85 -2532.85c360.21,-2.82 498.76,79.89 545.17,-374.85 -1557.27,-40.5 -1310.04,-59.58 -1451.87,358.13l-0.01 0.02z"/>
  <path class="fil1" d="M9196.97 2855.01c-405.82,-75.54 -1484.18,-716.81 -1770.97,-906.62 114.07,-311.73 1254.04,-763.41 1584.76,-914.4 -465.98,-15.41 -1043.23,124.48 -1438.69,265.02l-1136.76 601.27c552.16,581.84 2303.83,1146.94 3105.2,1116.21l-343.55 -161.48 0.01 0z"/>
  <path class="fil0" d="M4122.13 3551.75l475.79 -3.93 975.71 -2899.9c-658.69,-13.14 -425.78,-162.47 -953.77,1403.61 -138.68,411.33 -422.61,1108.78 -497.71,1500.2l-0.02 0.02z"/>
  <path class="fil1" d="M9574.6 597.19c152.65,-126.53 311.73,-417.21 689.49,-293.65 524.62,171.58 447.51,952.45 19.45,1308.51 -233.72,194.42 -439.66,199.58 -793.75,157.24 572.01,571.15 1507.39,-447.29 1627.28,-980.39 218,-969.42 -1453.82,-1059.6 -1542.47,-191.71z"/>
  <path class="fil1" d="M9196.97 2855.01c447.55,1.57 1164.12,-414.24 1375.52,-634.61 -267.14,55.15 -495.44,189 -814.58,202.64 -428.8,18.34 -339.6,-304.1 -347.71,-656.94 -258.64,233.09 -421.12,723.67 -213.24,1088.91l0.01 0z"/>
 </g>
</svg>
